# xmcd
# Copyright (c) 1998 CDDB Inc.
#
# Track frame offsets:
#	150
#	17134
#	33406
#	51887
#	65244
#	80815
#	99461
#	113027
#	137213
#	154729
#	175791
#	190379
#	210375
#	226792
#	242107
#	256766
#	274992
#
# Disc length: 3844 seconds
#
# Revision: 2
# Processed by: cddbd v1.4PL0 Copyright (c) Steve Scherf et al.
# Submitted via: audiograbber 1.70
#
DISCID=ee0f0211
DTITLE=Charlie Landsborough - Movin' On
DYEAR=2002
DGENRE=Country
TTITLE0=Not The Only Thing Blue
TTITLE1=I Wish It Was Me
TTITLE2=Leave Me
TTITLE3=Special
TTITLE4=Who Can Blame Him
TTITLE5=If Only I Had Wings
TTITLE6=Passing Through
TTITLE7=Centuries
TTITLE8=Like Rain
TTITLE9=Your Eyes
TTITLE10=Sunshine
TTITLE11=Long And Heavy Chain
TTITLE12=My Father Used To Sing
TTITLE13=It's So Good To See You
TTITLE14=Love Has Come Home To My Heart
TTITLE15=Too Good To Last
TTITLE16=Special (Featuring St. Ambrose RC School)
EXTD=YEAR: 2002 ID3G: 2
EXTT0=
EXTT1=
EXTT2=
EXTT3=
EXTT4=
EXTT5=
EXTT6=
EXTT7=
EXTT8=
EXTT9=
EXTT10=
EXTT11=
EXTT12=
EXTT13=
EXTT14=
EXTT15=
EXTT16=
PLAYORDER=
